<svg width="110" height="100" viewBox="0 0 110 100" fill="none" xmlns="http://www.w3.org/2000/svg">
<rect x="5" width="100" height="100" rx="50" fill="#03080F"/>
<path d="M5.64258 53.9082L16.3652 57.5293V62.9258L0.808594 56.5977V52.5898L5.64258 53.9082ZM16.3652 50.9727L5.625 54.6641L0.808594 55.9297V51.9219L16.3652 45.5938V50.9727Z" fill="#00BCA2"/>
<path d="M31.1836 44.7852L24.9434 65H18.3164L27.7207 39.4062H31.9219L31.1836 44.7852ZM36.3516 65L30.0938 44.7852L29.2852 39.4062H33.5391L42.9961 65H36.3516ZM36.1055 55.4551V60.2188H22.9746V55.4551H36.1055ZM66.252 39.4062V65H60.0996L51.0469 49.0742V65H44.877V39.4062H51.0469L60.0996 55.332V39.4062H66.252Z" fill="#E2E7ED"/>
<path d="M89.6309 39.4062L80.877 67.1973H76.6582L85.4121 39.4062H89.6309ZM102.463 54.6113L91.7754 50.9902V45.6113L107.244 51.9395V55.9648L102.463 54.6113ZM91.7754 57.5645L102.463 53.8555L107.244 52.6074V56.6152L91.7754 62.9434V57.5645Z" fill="#00BAA0"/>
</svg>
